<?xml version="1.0" encoding="utf-8"?>
<!-- Generator: Adobe Illustrator 27.7.0, SVG Export Plug-In . SVG Version: 6.00 Build 0)  -->
<svg version="1.1" id="Layer_1" xmlns="http://www.w3.org/2000/svg" xmlns:xlink="http://www.w3.org/1999/xlink" x="0px" y="0px"
	 viewBox="0 0 141.8 120.9" style="enable-background:new 0 0 141.8 120.9;" xml:space="preserve">
<style type="text/css">
	.st0{display:none;}
	.st1{fill:#23413D;}
	.st2{fill:#A8BE6F;}
</style>
<g id="Layer_1_00000064356270535221299790000014352412388912453039_" class="st0">
	
		<image style="display:inline;overflow:visible;opacity:0.5;enable-background:new    ;" width="858" height="818" xlink:href="BAE2E15F86E5C9C8.png"  transform="matrix(0.5 0 0 0.5 38.6058 31.0805)">
	</image>
</g>
<g id="Layer_2_00000132067772491610010640000013879215835295330725_">
	<g>
		<path class="st1" d="M66.6,6.9c0,0,19,30.3,6,62c-7.3,17.7-24,27.5-28.7,30c-2.9,1.6,7.1,2.9,7.1,2.9s36.8-11.1,40.9-49.1
			c4.1-38-10-49.1-10-49.1l-1.8,7.9L66.6,6.9z"/>
		<path class="st2" d="M38.9,63.5c0,0-11.8,6.6-10,15.6c1.8,9,10.3,19.3,22.2,22.7c0,0-22.9-1.8-29.5-13.1
			C15.2,78,19.1,65.8,33.7,60L38.9,63.5z"/>
		<path class="st1" d="M42.1,69.7h-5.7l-2.7-9.8C33.6,59.9,39.4,61.5,42.1,69.7z"/>
		<path class="st2" d="M58.4,62c0,0-6.9-8.2-12.9-2.1s-9.2,9.8-9.2,9.8l5.7,5.4C42.1,75.1,52.8,60.9,58.4,62z"/>
		<path class="st1" d="M36.3,88.2c0,0,17.9-15.8,14.7-30.5c0,0,10,1.5,9.5,10.4S54.8,84.9,48.4,89c-6.3,4.1-7.7,3.8-7.7,3.8l0.5-4.5
			L36.3,88.2z"/>
	</g>
	<g>
		<path class="st2" d="M77.4,93.9c0,0,2.3,23.4,20.3,21.2l4.7-4.4c0,0-16.7,1.8-18.5-16.9l-2.4,2.9L77.4,93.9z"/>
		<path class="st1" d="M96.3,57.3c-1.7,6.3-1.8,13-0.1,19.3c1.9,6.6,6.3,11.7,8.9,18c2.8,7.2,2.2,18-6.6,20.3
			c-3.8,1.1-8.1,0-11.3-2.4c3.5-0.2,7.1-0.9,10.1-2.8c1.3-0.8,2.4-1.9,3.1-3.3c1.6-3.9-0.8-9.6-2.3-13.1c-1.2-2.8-2.7-5.5-4.3-8.2
			c-1.5-2.5-3.3-4.9-3.8-7.8c-1.1-5.9,1.9-12.2,4.7-17.3C95.1,59.3,96.1,58.2,96.3,57.3z"/>
		<path class="st1" d="M110.8,75.8c0,0,2.8,5.7,8,0c5.2-5.7-2.7-17.5-2.7-17.5s4.4,12.4,0,16.3C111.7,78.6,110.8,75.8,110.8,75.8z"
			/>
		<path class="st2" d="M89.8,76.6c0,0,1.8-12.8,13.7-15.4c11.8-2.6,17.1,11.3,17.1,11.3s2.4-18.4-16.1-17.7
			C86.1,55.7,89.8,76.6,89.8,76.6z"/>
		<path class="st2" d="M113.3,78.1c0,0-1.9-1.9-1.9-5.7H108C108,72.6,109.2,78.2,113.3,78.1z"/>
		<path class="st1" d="M111.4,72.6c0,0-3.4,6.5-10.4,2.6l0.4-2.1c0,0,4.1,1.8,7.5-2.5L111.4,72.6z"/>
		<path class="st2" d="M101.8,75.8c0,0,3.7-7.1,9-7.9l-3.6-1l2-1.1c0,0-3.4-2.1-7.3,2.9C97.9,73.6,101.8,75.8,101.8,75.8z"/>
	</g>
</g>
</svg>
